<svg width="23" height="22" viewBox="0 0 23 22" fill="none" xmlns="http://www.w3.org/2000/svg">
<path d="M2.93156 10.1006C2.50609 10.1017 2.08965 10.2234 1.73042 10.4514C1.37119 10.6794 1.08385 11.0044 0.901643 11.3889C0.719438 11.7734 0.649814 12.2016 0.700825 12.624C0.751836 13.0464 0.921398 13.4457 1.18989 13.7758L6.9136 20.7873C7.11767 21.0407 7.37927 21.2418 7.67665 21.3738C7.97403 21.5058 8.29862 21.5649 8.62345 21.5463C9.31818 21.509 9.94541 21.1373 10.3453 20.5263L22.2349 1.37813C22.2368 1.37495 22.2389 1.37178 22.241 1.36865C22.3525 1.19736 22.3163 0.857911 22.0861 0.644665C22.0228 0.586105 21.9482 0.541115 21.8669 0.512465C21.7856 0.483815 21.6993 0.472112 21.6133 0.478076C21.5273 0.484041 21.4435 0.507548 21.3669 0.547148C21.2903 0.586748 21.2227 0.641603 21.1681 0.708336C21.1639 0.713582 21.1595 0.71875 21.155 0.723838L9.16415 14.2717C9.11853 14.3232 9.06311 14.3652 9.00113 14.3951C8.93914 14.4251 8.87182 14.4424 8.80307 14.4462C8.73433 14.4499 8.66553 14.4399 8.60068 14.4168C8.53582 14.3937 8.4762 14.358 8.42528 14.3116L4.44576 10.6902C4.03245 10.3114 3.49225 10.101 2.93156 10.1006Z" fill="white"/>
</svg>
