<svg width="29" height="29" viewBox="0 0 29 29" fill="none" xmlns="http://www.w3.org/2000/svg">
<circle cx="14.7617" cy="14.8669" r="14" fill="#003A60"/>
<g clip-path="url(#clip0_33_20)">
<path d="M17.9592 10.8272H12.4314C11.1614 10.8272 10.1282 11.8604 10.1282 13.1304V16.8156C10.1282 17.9276 10.9209 18.8581 11.9708 19.0723V20.5008C11.9708 20.6708 12.0643 20.8269 12.214 20.9071C12.2822 20.9435 12.3568 20.9615 12.4314 20.9615C12.5208 20.9615 12.6097 20.9352 12.6871 20.8841L15.3349 19.1189H17.9592C19.2292 19.1189 20.2624 18.0856 20.2624 16.8156V13.1304C20.2624 11.8604 19.2292 10.8272 17.9592 10.8272ZM14.9396 18.275L12.8921 19.6399V18.6582C12.8921 18.4039 12.6857 18.1976 12.4314 18.1976C11.6695 18.1976 11.0495 17.5775 11.0495 16.8156V13.1304C11.0495 12.3685 11.6695 11.7485 12.4314 11.7485H17.9592C18.7211 11.7485 19.3411 12.3685 19.3411 13.1304V16.8156C19.3411 17.5775 18.7211 18.1976 17.9592 18.1976H15.1953C15.1631 18.1971 15.117 18.2003 15.0645 18.216C15.0092 18.2321 14.9673 18.2561 14.9396 18.275Z" fill="white"/>
</g>
<defs>
<clipPath id="clip0_33_20">
<rect width="11.0555" height="11.0555" fill="white" transform="translate(9.66748 10.3666)"/>
</clipPath>
</defs>
</svg>
