<svg width="23" height="22" viewBox="0 0 23 22" fill="none" xmlns="http://www.w3.org/2000/svg">
<path d="M12.3777 1.69998L2.3217 0.171919C1.85504 0.098718 1.37924 0.226819 1.02238 0.528773C0.66553 0.839876 0.455078 1.28823 0.455078 1.75489V21.0341C0.455078 21.5374 0.866832 21.9491 1.37009 21.9491H4.34387V17.1453C4.34387 16.2578 5.05758 15.5441 5.94514 15.5441H8.23266C9.12022 15.5441 9.83393 16.2578 9.83393 17.1453V21.9491H13.7227V3.28295C13.7227 2.49604 13.1554 1.82809 12.3777 1.69998ZM5.48763 13.4853H4.11512C3.7363 13.4853 3.42886 13.1779 3.42886 12.7991C3.42886 12.4202 3.7363 12.1128 4.11512 12.1128H5.48763C5.86645 12.1128 6.17389 12.4202 6.17389 12.7991C6.17389 13.1779 5.86645 13.4853 5.48763 13.4853ZM5.48763 10.7403H4.11512C3.7363 10.7403 3.42886 10.4328 3.42886 10.054C3.42886 9.67521 3.7363 9.36777 4.11512 9.36777H5.48763C5.86645 9.36777 6.17389 9.67521 6.17389 10.054C6.17389 10.4328 5.86645 10.7403 5.48763 10.7403ZM5.48763 7.99525H4.11512C3.7363 7.99525 3.42886 7.68781 3.42886 7.30899C3.42886 6.93018 3.7363 6.62274 4.11512 6.62274H5.48763C5.86645 6.62274 6.17389 6.93018 6.17389 7.30899C6.17389 7.68781 5.86645 7.99525 5.48763 7.99525ZM5.48763 5.25022H4.11512C3.7363 5.25022 3.42886 4.94278 3.42886 4.56396C3.42886 4.18515 3.7363 3.87771 4.11512 3.87771H5.48763C5.86645 3.87771 6.17389 4.18515 6.17389 4.56396C6.17389 4.94278 5.86645 5.25022 5.48763 5.25022ZM10.0627 13.4853H8.69017C8.31135 13.4853 8.00391 13.1779 8.00391 12.7991C8.00391 12.4202 8.31135 12.1128 8.69017 12.1128H10.0627C10.4415 12.1128 10.7489 12.4202 10.7489 12.7991C10.7489 13.1779 10.4415 13.4853 10.0627 13.4853ZM10.0627 10.7403H8.69017C8.31135 10.7403 8.00391 10.4328 8.00391 10.054C8.00391 9.67521 8.31135 9.36777 8.69017 9.36777H10.0627C10.4415 9.36777 10.7489 9.67521 10.7489 10.054C10.7489 10.4328 10.4415 10.7403 10.0627 10.7403ZM10.0627 7.99525H8.69017C8.31135 7.99525 8.00391 7.68781 8.00391 7.30899C8.00391 6.93018 8.31135 6.62274 8.69017 6.62274H10.0627C10.4415 6.62274 10.7489 6.93018 10.7489 7.30899C10.7489 7.68781 10.4415 7.99525 10.0627 7.99525ZM10.0627 5.25022H8.69017C8.31135 5.25022 8.00391 4.94278 8.00391 4.56396C8.00391 4.18515 8.31135 3.87771 8.69017 3.87771H10.0627C10.4415 3.87771 10.7489 4.18515 10.7489 4.56396C10.7489 4.94278 10.4415 5.25022 10.0627 5.25022Z" fill="white"/>
<path d="M21.1526 9.90942L14.6377 8.54514V21.9491H20.814C21.697 21.9491 22.4153 21.2308 22.4153 20.3478V11.4741C22.4153 10.7183 21.9001 10.075 21.1526 9.90942ZM18.984 19.2041H17.6115C17.2327 19.2041 16.9252 18.8966 16.9252 18.5178C16.9252 18.139 17.2327 17.8316 17.6115 17.8316H18.984C19.3628 17.8316 19.6702 18.139 19.6702 18.5178C19.6702 18.8966 19.3628 19.2041 18.984 19.2041ZM18.984 16.4591H17.6115C17.2327 16.4591 16.9252 16.1516 16.9252 15.7728C16.9252 15.394 17.2327 15.0865 17.6115 15.0865H18.984C19.3628 15.0865 19.6702 15.394 19.6702 15.7728C19.6702 16.1516 19.3628 16.4591 18.984 16.4591ZM18.984 13.714H17.6115C17.2327 13.714 16.9252 13.4066 16.9252 13.0278C16.9252 12.649 17.2327 12.3415 17.6115 12.3415H18.984C19.3628 12.3415 19.6702 12.649 19.6702 13.0278C19.6702 13.4066 19.3628 13.714 18.984 13.714Z" fill="white"/>
</svg>
