<svg width="23" height="20" viewBox="0 0 23 20" fill="none" xmlns="http://www.w3.org/2000/svg">
<path d="M19.2584 10.7839H17.5571C17.7305 11.2586 17.8253 11.771 17.8253 12.3051V18.735C17.8253 18.9577 17.7865 19.1714 17.716 19.3702H20.5287C21.5793 19.3702 22.4341 18.5154 22.4341 17.4648V13.9595C22.4341 12.2085 21.0095 10.7839 19.2584 10.7839Z" fill="white"/>
<path d="M5.0439 12.3051C5.0439 11.771 5.13864 11.2586 5.31206 10.7839H3.61074C1.85967 10.7839 0.435059 12.2085 0.435059 13.9595V17.4648C0.435059 18.5154 1.2898 19.3702 2.34047 19.3702H5.15316C5.08266 19.1714 5.0439 18.9577 5.0439 18.735V12.3051Z" fill="white"/>
<path d="M13.3791 9.12943H9.48965C7.73857 9.12943 6.31396 10.554 6.31396 12.3051V18.7351C6.31396 19.0858 6.59832 19.3702 6.9491 19.3702H15.9196C16.2704 19.3702 16.5548 19.0859 16.5548 18.7351V12.3051C16.5548 10.554 15.1302 9.12943 13.3791 9.12943Z" fill="white"/>
<path d="M11.4344 0.708984C9.3285 0.708984 7.61523 2.42224 7.61523 4.52818C7.61523 5.95661 8.40363 7.20416 9.56795 7.85914C10.1202 8.16979 10.7569 8.34733 11.4344 8.34733C12.1119 8.34733 12.7486 8.16979 13.3008 7.85914C14.4652 7.20416 15.2535 5.95657 15.2535 4.52818C15.2535 2.42229 13.5403 0.708984 11.4344 0.708984Z" fill="white"/>
<path d="M4.72829 4.26871C3.15334 4.26871 1.87207 5.54998 1.87207 7.12493C1.87207 8.69988 3.15334 9.98115 4.72829 9.98115C5.1278 9.98115 5.50823 9.8984 5.85381 9.74965C6.45131 9.4924 6.94396 9.03704 7.24882 8.46666C7.46279 8.06633 7.58452 7.60964 7.58452 7.12493C7.58452 5.55002 6.30324 4.26871 4.72829 4.26871Z" fill="white"/>
<path d="M18.1409 4.26871C16.5659 4.26871 15.2847 5.54998 15.2847 7.12493C15.2847 7.60968 15.4064 8.06638 15.6204 8.46666C15.9252 9.03708 16.4179 9.49245 17.0154 9.74965C17.361 9.8984 17.7414 9.98115 18.1409 9.98115C19.7158 9.98115 20.9971 8.69988 20.9971 7.12493C20.9971 5.54998 19.7158 4.26871 18.1409 4.26871Z" fill="white"/>
</svg>
