<svg width="17" height="24" viewBox="0 0 17 24" fill="none" xmlns="http://www.w3.org/2000/svg">
<path d="M4.00186 6.15744C4.04859 5.95681 4.24916 5.83202 4.44978 5.87875C4.65048 5.92548 4.7752 6.12604 4.72847 6.32667C4.68154 6.52777 4.64577 6.7331 4.62204 6.94133C4.59884 7.14485 4.58681 7.35624 4.58681 7.57475C4.58681 8.83608 5.00535 9.97383 5.68207 10.7936C6.34198 11.5932 7.24898 12.0877 8.24654 12.0877C9.24411 12.0877 10.1511 11.5932 10.811 10.7937C11.4877 9.97383 11.9063 8.83608 11.9063 7.57475C11.9063 7.35624 11.8942 7.14485 11.871 6.94133C11.8473 6.73303 11.8115 6.52777 11.7646 6.32667C11.7179 6.12604 11.8426 5.92548 12.0432 5.87875C12.2439 5.83202 12.4445 5.95681 12.4912 6.15744C12.5441 6.38402 12.5848 6.61847 12.6123 6.85957C12.6393 7.09691 12.6533 7.33573 12.6533 7.57475C12.6533 9.01216 12.169 10.3177 11.3859 11.2664C10.5861 12.2354 9.4764 12.8348 8.24654 12.8348C7.01661 12.8348 5.90697 12.2354 5.10714 11.2664C4.32412 10.3177 3.83976 9.01216 3.83976 7.57475C3.83976 7.33573 3.85375 7.09691 3.88077 6.85957C3.90827 6.61847 3.94895 6.38402 4.00186 6.15744Z" fill="white"/>
<path d="M3.62252 5.15587H12.8693C13.1694 5.15587 13.4126 5.39894 13.4126 5.69879C13.4126 5.99864 13.1694 6.24171 12.8693 6.24171H3.62252C3.32248 6.24171 3.07926 5.99864 3.07926 5.69879C3.07926 5.39894 3.32248 5.15587 3.62252 5.15587Z" fill="white"/>
<path fill-rule="evenodd" clip-rule="evenodd" d="M12.6901 17.5154V13.7896C13.4808 14.0235 14.1894 14.4397 14.7613 14.9863C15.6678 15.8526 16.2305 17.0473 16.2305 18.3611V23.1453H13.3753V17.7645C13.3753 17.627 13.2638 17.5154 13.1263 17.5154H12.6901Z" fill="white"/>
<path fill-rule="evenodd" clip-rule="evenodd" d="M11.4619 17.5154V13.5827C11.7103 13.5944 11.9541 13.6236 12.1919 13.6688V17.5154H11.4619Z" fill="white"/>
<path fill-rule="evenodd" clip-rule="evenodd" d="M5.27947 18.0135H11.2127H12.4407H12.877V23.1453H3.6152V18.0135H4.05142H5.27947ZM5.3541 18.982C5.3541 18.7919 5.27698 18.6197 5.1524 18.4951C5.02774 18.3704 4.85555 18.2933 4.66548 18.2933C4.47648 18.2933 4.30456 18.3704 4.17951 18.4951H4.1785C4.17285 18.5007 4.16754 18.5066 4.16256 18.5126C4.04732 18.6361 3.97679 18.8012 3.97679 18.982C3.97679 19.1721 4.05391 19.3443 4.17857 19.4689C4.30315 19.5935 4.47534 19.6706 4.66548 19.6706C4.85495 19.6706 5.0268 19.5935 5.15139 19.4689L5.1524 19.469C5.15791 19.4634 5.16315 19.4577 5.16806 19.4518C5.28344 19.3287 5.3541 19.1634 5.3541 18.982ZM11.3398 18.4951C10.9086 18.9263 11.2132 19.6706 11.8267 19.6706C12.0168 19.6706 12.189 19.5935 12.3137 19.4689C12.5811 19.2015 12.5839 18.7668 12.3131 18.4956L12.3136 18.495C12.1857 18.37 12.0198 18.2933 11.8267 18.2933C11.6376 18.2933 11.4652 18.3706 11.3403 18.4956L11.3398 18.4951Z" fill="white"/>
<path fill-rule="evenodd" clip-rule="evenodd" d="M5.52873 17.5155V13.577H6.07024C6.07636 14.1452 6.32176 14.6609 6.71401 15.0358C7.10788 15.4123 7.65033 15.646 8.2463 15.646C8.8422 15.646 9.38465 15.4123 9.77852 15.0358C10.1708 14.6609 10.4162 14.1452 10.4224 13.577H10.9639V17.5155H5.52873Z" fill="white"/>
<path fill-rule="evenodd" clip-rule="evenodd" d="M4.30079 17.5154V13.6688C4.5386 13.6236 4.7824 13.5944 5.03076 13.5827V17.5154H4.30079Z" fill="white"/>
<path fill-rule="evenodd" clip-rule="evenodd" d="M0.262344 18.3611C0.262344 17.0473 0.824967 15.8526 1.7315 14.9863C2.3034 14.4397 3.01198 14.0235 3.80273 13.7896V17.5154H3.36651C3.22902 17.5154 3.11748 17.627 3.11748 17.7645V23.1453H0.262344V18.3611Z" fill="white"/>
<path fill-rule="evenodd" clip-rule="evenodd" d="M10.2373 12.2129C11.3987 11.4715 12.2625 10.1711 12.5656 8.6203C12.7171 9.28445 13.1187 10.0175 13.4305 10.5914C13.8472 11.3588 14.4282 11.933 15.2383 12.0375C15.0552 12.3208 14.7069 12.7478 14.1733 13.1045C13.0579 13.8502 11.7038 13.6216 10.4215 13.6216L10.2373 12.2129Z" fill="white"/>
<path fill-rule="evenodd" clip-rule="evenodd" d="M6.25439 12.2129C5.09305 11.4715 4.22921 10.1711 3.92618 8.6203C3.77463 9.28445 3.37304 10.0175 3.06127 10.5914C2.64455 11.3588 2.06344 11.933 1.25346 12.0375C1.43654 12.3208 1.78482 12.7478 2.31839 13.1045C3.43866 13.8535 4.76299 13.6216 6.07024 13.6216L6.25439 12.2129Z" fill="white"/>
<path fill-rule="evenodd" clip-rule="evenodd" d="M3.78264 4.65815C3.78264 4.65815 5.09338 -1.02065 8.2463 1.24463C11.3992 -1.02065 12.71 4.65815 12.71 4.65815H3.78264Z" fill="white"/>
</svg>
