<svg width="21" height="21" viewBox="0 0 21 21" fill="none" xmlns="http://www.w3.org/2000/svg">
<path d="M15.3584 5.71473C16.8012 5.71473 17.9708 4.54514 17.9708 3.10239C17.9708 1.65963 16.8012 0.490051 15.3584 0.490051C13.9157 0.490051 12.7461 1.65963 12.7461 3.10239C12.7461 4.54514 13.9157 5.71473 15.3584 5.71473Z" fill="white"/>
<path d="M14.1755 15.6589L13.0749 11.3429C12.8791 10.5752 12.1858 10.0347 11.3908 10.0347H9.47951C8.68445 10.0347 7.99122 10.5752 7.7954 11.3429L6.69484 15.6589C6.53035 16.3012 7.016 16.9239 7.6779 16.9239H8.50429V19.6734C8.50429 20.1512 8.89203 20.5428 9.37376 20.5428H11.5005C11.9783 20.5428 12.3699 20.1551 12.3699 19.6734V16.9239H13.1963C13.8543 16.9239 14.3399 16.3012 14.1755 15.6589Z" fill="white"/>
<path d="M10.4353 9.58041C11.5016 9.58041 12.3661 8.71593 12.3661 7.64955C12.3661 6.58316 11.5016 5.71869 10.4353 5.71869C9.36887 5.71869 8.50439 6.58316 8.50439 7.64955C8.50439 8.71593 9.36887 9.58041 10.4353 9.58041Z" fill="white"/>
<path d="M20.4184 13.9395L18.9302 8.09993C18.6638 7.05813 17.7278 6.32965 16.6546 6.32965H14.0697C13.6663 6.32965 13.2864 6.43148 12.9496 6.61556C13.0827 6.9328 13.1532 7.28137 13.1532 7.64953C13.1532 8.35451 12.883 8.99682 12.4404 9.48247C13.118 9.79188 13.6428 10.395 13.8347 11.1509L14.6885 14.4996L14.9353 15.467C14.9509 15.5257 14.9627 15.5884 14.9705 15.6471C15.0449 16.1328 14.9157 16.6184 14.6102 17.0101C14.2695 17.4527 13.7486 17.7033 13.1924 17.7033H13.1493V19.6694C13.1493 19.8457 13.1219 20.0141 13.071 20.1747C13.2825 20.3979 13.588 20.5389 13.9209 20.5389H16.7995C17.4497 20.5389 17.9745 20.0141 17.9745 19.3639V15.6432H19.0907C19.9837 15.6471 20.6378 14.8051 20.4184 13.9395Z" fill="white"/>
<path d="M5.93501 15.467L6.18175 14.4996L7.03556 11.1509C7.22747 10.3911 7.75229 9.79188 8.42985 9.48247C7.98728 9.00074 7.71704 8.35451 7.71704 7.64953C7.71704 7.28529 7.78754 6.93672 7.9207 6.61556C7.58388 6.43148 7.20397 6.32965 6.80056 6.32965H4.21564C3.14251 6.32965 2.20254 7.05813 1.94013 8.09993L0.451839 13.9395C0.232512 14.8051 0.886575 15.6471 1.77955 15.6471H2.89577V19.3678C2.89577 20.018 3.42058 20.5428 4.07073 20.5428H6.94939C7.2823 20.5428 7.58387 20.4018 7.79928 20.1786C7.74837 20.018 7.72095 19.8496 7.72095 19.6733V17.7072H7.67787C7.11781 17.7072 6.60082 17.4527 6.26008 17.014C5.95459 16.6223 5.82926 16.1328 5.89976 15.651C5.90759 15.5884 5.91934 15.5257 5.93501 15.467Z" fill="white"/>
<path d="M8.12248 3.10764C8.12536 1.66489 6.95812 0.492967 5.51537 0.490082C4.07261 0.487196 2.90069 1.65444 2.8978 3.0972C2.89492 4.53995 4.06216 5.71187 5.50492 5.71476C6.94767 5.71764 8.11959 4.5504 8.12248 3.10764Z" fill="white"/>
</svg>
