<svg width="19" height="24" viewBox="0 0 19 24" fill="none" xmlns="http://www.w3.org/2000/svg">
<circle cx="9.34546" cy="12.0427" r="9.16284" fill="#20A6CF"/>
<path d="M8.72252 15.5424V10.6333H10.084V15.5424H8.72252ZM9.40647 10.0005C9.20406 10.0005 9.03041 9.9334 8.88552 9.79917C8.74276 9.6628 8.67139 9.49981 8.67139 9.31017C8.67139 9.12267 8.74276 8.96181 8.88552 8.82758C9.03041 8.69121 9.20406 8.62303 9.40647 8.62303C9.60889 8.62303 9.78147 8.69121 9.92423 8.82758C10.0691 8.96181 10.1416 9.12267 10.1416 9.31017C10.1416 9.49981 10.0691 9.6628 9.92423 9.79917C9.78147 9.9334 9.60889 10.0005 9.40647 10.0005Z" fill="white"/>
</svg>
