<svg width="18" height="21" viewBox="0 0 18 21" fill="none" xmlns="http://www.w3.org/2000/svg">
<path d="M12.1824 15.9807H6.08799C5.41589 15.9807 4.86914 16.5275 4.86914 17.1996V20.2063H13.4012V17.1996C13.4012 16.5275 12.8545 15.9807 12.1824 15.9807Z" fill="white"/>
<path d="M7.10011 12.5311C7.00291 12.434 6.87445 12.3759 6.73828 12.366V14.8427H11.5328V12.366C11.3966 12.3759 11.268 12.434 11.1705 12.5315C10.627 13.075 9.90439 13.3743 9.13553 13.3743C8.36668 13.3743 7.64405 13.075 7.10011 12.5311Z" fill="white"/>
<path d="M12.6704 12.4757V14.8938C13.7365 15.1192 14.5391 16.0672 14.5391 17.1995V20.2062H16.4485C16.7624 20.2062 17.0174 19.9513 17.0174 19.6372V17.8089C17.0174 15.1829 15.1481 12.9848 12.6704 12.4757Z" fill="white"/>
<path d="M5.59996 12.4757C3.12225 12.9848 1.25293 15.1829 1.25293 17.8089V19.6372C1.25293 19.9513 1.50778 20.2062 1.8219 20.2062H3.73108V17.1995C3.73108 16.0672 4.53372 15.1192 5.59996 14.8938V12.4757Z" fill="white"/>
<path d="M17.0589 3.7112H13.9682C13.9253 2.09051 12.5944 0.785278 10.9636 0.785278H7.30708C5.67617 0.785278 4.34545 2.09051 4.30233 3.7112H1.21253C0.898408 3.7112 0.643555 3.9665 0.643555 4.28062C0.643555 5.31234 1.47998 6.14876 2.51169 6.14876H15.7598C16.7915 6.14876 17.6279 5.31234 17.6279 4.28062C17.6279 3.9665 17.3729 3.7112 17.0589 3.7112Z" fill="white"/>
<path d="M13.3609 7.44854V7.28659H4.90967V7.44854C4.90967 9.78593 6.80166 11.6741 9.13535 11.6741C11.4727 11.6741 13.3609 9.78223 13.3609 7.44854Z" fill="white"/>
</svg>
