<svg width="23" height="23" viewBox="0 0 23 23" fill="none" xmlns="http://www.w3.org/2000/svg">
<g clip-path="url(#clip0_743_9977)">
<path d="M5.94189 10.465H0.544355V18.9915H5.94189V10.465Z" fill="white"/>
<path d="M22.7632 20.2933H0.544033V22.8973H22.7632V20.2933Z" fill="white"/>
<path d="M11.6538 15.2452L16.064 10.8898V18.9914H7.24371V10.8898L11.6538 15.2452Z" fill="white"/>
<path d="M22.7632 10.465H17.3656V18.9915H22.7632V10.465Z" fill="white"/>
<path d="M15.3744 9.74077L11.6536 13.4155L7.9328 9.74077C6.91757 8.73813 6.35849 7.40016 6.35849 5.97331C6.35849 4.54637 6.91761 3.20836 7.9328 2.20576C8.93027 1.22061 10.2517 0.678101 11.6536 0.678101C13.0555 0.678101 14.3769 1.22061 15.3744 2.20572C16.3896 3.20836 16.9487 4.54637 16.9487 5.97327C16.9488 7.40016 16.3896 8.73817 15.3744 9.74077ZM11.6536 2.75208C9.85962 2.75208 8.40009 4.19712 8.40009 5.97327C8.40009 7.74946 9.85962 9.19449 11.6536 9.19449C13.4476 9.19449 14.9071 7.74946 14.9071 5.97327C14.9071 4.19712 13.4476 2.75208 11.6536 2.75208Z" fill="white"/>
<path d="M11.6539 7.89254C10.5778 7.89254 9.70226 7.03154 9.70226 5.97322C9.70226 4.91494 10.5778 4.05395 11.6539 4.05395C12.73 4.05395 13.6055 4.91494 13.6055 5.97322C13.6055 7.03154 12.73 7.89254 11.6539 7.89254Z" fill="white"/>
</g>
<defs>
<clipPath id="clip0_743_9977">
<rect width="22.2192" height="22.2192" fill="white" transform="matrix(-1 0 0 1 22.7632 0.678101)"/>
</clipPath>
</defs>
</svg>
