<svg width="21" height="19" viewBox="0 0 21 19" fill="none" xmlns="http://www.w3.org/2000/svg">
<path d="M20.1289 3.3388C20.2883 3.02811 20.2615 2.67588 20.1219 2.38349C20.1612 2.05079 20.0741 1.71298 19.7592 1.45388C19.4661 1.21271 19.1729 0.971406 18.8799 0.73019C18.3647 0.306237 17.5579 0.172426 17.0567 0.73019C14.7804 3.26328 12.4 5.68635 9.93227 8.0212C8.09764 6.30737 6.24072 4.6168 4.3971 2.92403C3.75005 2.32974 2.81346 2.51623 2.40637 3.22419C1.81339 3.5185 1.33274 3.90219 0.935288 4.55705C0.746042 4.86906 0.76079 5.26291 0.935288 5.57604C2.12549 7.70999 4.42603 9.5862 6.31755 11.3128C6.06444 11.5394 5.81321 11.7681 5.555 11.9899C3.0066 14.1783 1.28765 15.5669 4.47678 17.8108C4.51981 17.8411 4.56368 17.8344 4.60737 17.8521C4.66847 17.8802 4.72708 17.9001 4.79483 17.9112C4.8159 17.912 4.83557 17.9156 4.85631 17.9139C4.92195 17.9193 4.98618 17.936 5.05272 17.9229C6.7673 17.5868 8.3618 16.2431 9.80848 14.7635C11.2178 16.1526 12.7184 17.4797 14.3685 18.2671C14.7614 18.4546 15.2297 18.3453 15.5322 18.0831C16.0394 18.1214 16.5017 17.8062 16.7338 17.3533C16.7682 17.3321 16.7903 17.3199 16.8276 17.2967C17.5649 16.8361 17.6323 15.9187 17.0867 15.2864C15.8547 13.8588 14.5451 12.5017 13.2101 11.1686C15.6139 8.81986 18.6153 6.28672 20.1289 3.3388Z" fill="white"/>
</svg>
